<svg width="120" height="120" viewBox="0 0 120 120" fill="none" xmlns="http://www.w3.org/2000/svg">
<path d="M119.148 62.5605C118.613 72.5888 119.237 79.2777 113.133 86.1077C107.029 92.9377 96.7796 96.9617 87.1753 97.777C87.0984 97.7826 87.0268 97.8183 86.9757 97.8765C86.9245 97.9347 86.8979 98.0108 86.9014 98.0887C86.9959 100.032 87.4397 101.929 88.233 103.78C89.5488 106.859 90.298 108.725 90.4806 109.38C91.1102 111.65 89.9297 113.337 87.5625 113.066C87.04 113.006 86.6055 112.927 86.2593 112.83C78.4084 110.611 72.7359 105.212 66.5188 100.311C64.928 99.0561 63.2408 98.309 61.4569 98.0698C60.2135 97.9029 58.564 97.7329 57.1789 97.7266C46.3659 97.6668 41.7196 97.7392 33.8687 97.2167C29.0524 96.8956 23.8678 95.7309 19.6465 93.6375C10.76 89.2273 4.95523 81.0018 2.33303 71.4731C-0.271339 62.0084 -0.695259 52.3675 1.06127 42.5502C1.87973 37.9794 3.24592 33.7119 5.15984 29.7477C9.46303 20.8297 17.2572 14.2002 26.5278 10.9012C32.5592 8.75432 39.0344 7.72495 45.5065 7.39128C51.0846 7.10377 56.9344 6.97471 63.0561 7.00409C67.1641 7.02297 72.1944 7.30943 76.2741 7.40387C78.4273 7.45214 82.1649 7.66829 87.487 8.05234C94.5918 8.56545 102.052 10.2811 107.901 14.4489C113.174 18.2043 116.479 24.3333 118.151 30.6637C119.148 34.4517 119.723 38.3226 119.876 42.2763C120.258 50.467 119.684 52.5322 119.148 62.5605Z" fill="#F07F23"/>
<path d="M65.7314 71.4848C66.1595 72.8006 67.4123 76.1814 64.9129 76.2318C62.5751 76.278 61.0053 76.2937 60.2036 76.279C59.0011 76.258 58.1837 76.2014 57.7514 76.109C57.6552 76.0902 57.5612 76.0606 57.4713 76.0209C56.6024 75.6473 56.0169 74.9621 55.7147 73.9653C55.2551 72.4501 54.6444 70.1458 53.8826 67.0525C53.6875 66.2613 53.1932 65.8626 52.4 65.8563C47.357 65.8164 41.7737 65.8154 35.65 65.8532C34.9491 65.8574 34.4874 66.2162 34.2649 66.9297C34.011 67.7419 33.1705 70.276 31.7434 74.5319C31.4979 75.2664 31.0824 75.8005 30.4969 76.1342C30.3874 76.1962 30.264 76.2297 30.138 76.2318C28.3227 76.2654 26.4686 76.2727 24.5757 76.2538C23.0363 76.2412 21.8087 76.3451 21.4876 74.7617C21.3638 74.1552 21.3963 73.5571 21.5852 72.9674C23.178 68.0273 27.7467 53.9719 35.2911 30.8013C35.82 29.1738 36.4684 27.6754 37.2806 26.4005C38.5366 24.4268 40.6048 24.3355 42.7296 24.3071C44.7065 24.2757 46.9321 24.2379 48.7295 24.6943C49.5711 24.9105 50.2384 25.4257 50.7316 26.24C51.3171 27.2095 51.8292 28.3763 52.2678 29.7404C56.87 44.1074 61.3579 58.0222 65.7314 71.4848ZM43.737 57.0894C47.1115 57.1083 48.9541 57.1135 49.2647 57.1051C49.3763 57.102 49.4833 57.0599 49.5667 56.9862C49.6502 56.9125 49.7049 56.812 49.7211 56.7022C49.803 56.1776 49.7652 55.6624 49.6078 55.1566C47.7463 49.1462 46.015 43.3603 44.4137 37.799C44.3004 37.4066 44.1095 37.2093 43.8408 37.2072C43.5722 37.2072 43.3802 37.4024 43.2648 37.7928C41.6048 43.3373 39.8126 49.1053 37.8881 55.0968C37.7266 55.6004 37.6835 56.1146 37.7591 56.6392C37.7746 56.7491 37.8285 56.85 37.9114 56.9242C37.9942 56.9985 38.1008 57.0413 38.2124 57.0453C38.523 57.0579 40.3645 57.0726 43.737 57.0894Z" fill="#FFFAEE"/>
<path d="M90.1874 53.91C90.2164 53.9105 90.2451 53.9053 90.272 53.8947C90.2989 53.8842 90.3234 53.8686 90.3442 53.8487C90.3649 53.8288 90.3815 53.8051 90.393 53.7789C90.4044 53.7527 90.4105 53.7245 90.4109 53.696C90.4833 51.0517 90.0426 48.5649 87.8202 46.8745C85.8905 45.4076 82.4656 45.7381 80.3313 46.7265C78.3985 47.6237 76.9096 48.9238 75.2695 49.9941C74.7679 50.3235 74.2443 50.2742 73.6987 49.8461C72.2444 48.7034 69.5938 46.4715 70.214 44.3908C70.4113 43.7297 70.9191 42.9721 71.7376 42.118C75.9935 37.67 82.7458 36.9617 88.689 37.8778C93.1213 38.5609 96.7508 40.7707 98.5451 44.992C99.5189 47.2816 100.014 49.8073 100.031 52.569C100.079 59.9435 100.099 66.6874 100.091 72.8006C100.091 74.6484 100.302 75.8887 98.2964 76.1626C97.4045 76.2843 95.5504 76.3105 92.7341 76.2413C91.7362 76.2161 91.0027 75.8069 90.839 74.7082C90.7478 74.107 90.6628 72.5079 90.5904 72.4071C90.5346 72.3303 90.4613 72.268 90.3765 72.2253C90.2918 72.1826 90.198 72.1609 90.1032 72.1618C90.0083 72.1627 89.915 72.1863 89.8311 72.2306C89.7471 72.275 89.6751 72.3387 89.6208 72.4166C88.6345 73.8226 87.4267 74.9024 85.9976 75.6558C83.155 77.1542 78.7165 76.9527 75.6032 76.0618C71.8068 74.9758 69.7103 72.0892 69.1154 68.1512C68.5834 64.6255 69.3042 60.9236 71.7092 58.1597C74.6431 54.7915 79.9158 54.1524 83.9766 53.9919C86.4089 53.8954 88.4792 53.8681 90.1874 53.91ZM90.3102 60.7032C90.2968 60.5826 90.2424 60.4705 90.1562 60.386C90.07 60.3016 89.9575 60.2501 89.838 60.2405C86.3785 59.9509 77.9421 60.4356 78.3104 65.9319C78.5906 70.1091 83.9672 69.7094 86.5831 68.5824C89.7845 67.2036 90.6659 63.9959 90.3102 60.7032Z" fill="#FFFAEE"/>
</svg>
